<svg width="1440" height="1024" viewBox="0 0 1440 1024" fill="none" xmlns="http://www.w3.org/2000/svg">
<g clip-path="url(#clip0_119:1391)">
<rect width="1440" height="1024" fill="white"/>
<rect x="0.5" y="0.5" width="1439" height="1023" fill="#074F88" stroke="#BC1515"/>
<path d="M706 177.218L609.146 197C603.276 193.483 621.375 186.254 631.158 183.08C639.376 173.862 647.79 175.331 650.969 177.218C672.688 153.774 682.031 164.519 683.988 172.822C692.793 169.306 702.331 174.288 706 177.218Z" fill="#007AB5"/>
<path d="M1258 233.218L1161.15 253C1155.28 249.483 1173.38 242.254 1183.16 239.08C1191.38 229.862 1199.79 231.331 1202.97 233.218C1224.69 209.774 1234.03 220.519 1235.99 228.822C1244.79 225.306 1254.33 230.288 1258 233.218Z" fill="#007AB5"/>
<path d="M302 744.218L205.146 764C199.276 760.483 217.375 753.254 227.158 750.08C235.376 740.862 243.79 742.331 246.969 744.218C268.688 720.774 278.031 731.519 279.988 739.822C288.793 736.306 298.331 741.288 302 744.218Z" fill="#007AB5"/>
<path d="M302 279.218L205.146 299C199.276 295.483 217.375 288.254 227.158 285.08C235.376 275.862 243.79 277.331 246.969 279.218C268.688 255.774 278.031 266.519 279.988 274.822C288.793 271.306 298.331 276.288 302 279.218Z" fill="#007AB5"/>
<path d="M326 477.218L229.146 497C223.276 493.483 241.375 486.254 251.158 483.08C259.376 473.862 267.79 475.331 270.969 477.218C292.688 453.774 302.031 464.519 303.988 472.822C312.793 469.306 322.331 474.288 326 477.218Z" fill="#007AB5"/>
<path d="M490 262.218L393.146 282C387.276 278.483 405.375 271.254 415.158 268.08C423.376 258.862 431.79 260.331 434.969 262.218C456.688 238.774 466.031 249.519 467.988 257.822C476.793 254.306 486.331 259.288 490 262.218Z" fill="#007AB5"/>
<path d="M385 356.218L288.146 376C282.276 372.483 300.375 365.254 310.158 362.08C318.376 352.862 326.79 354.331 329.969 356.218C351.688 332.774 361.031 343.519 362.988 351.822C371.793 348.306 381.331 353.288 385 356.218Z" fill="#007AB5"/>
<circle cx="1341" cy="927" r="134.5" stroke="#007AB5" stroke-width="41"/>
<circle cx="1185" cy="927" r="134.5" stroke="#007AB5" stroke-width="41"/>
<path opacity="0.4" d="M287.222 512.444C404.981 512.444 500.444 416.981 500.444 299.222C500.444 181.463 404.981 86 287.222 86C169.463 86 74 181.463 74 299.222C74 416.981 169.463 512.444 287.222 512.444Z" stroke="url(#paint0_linear_119:1391)" stroke-width="1.5" stroke-miterlimit="10"/>
<path opacity="0.4" d="M326.222 546.444C443.981 546.444 539.444 450.981 539.444 333.222C539.444 215.463 443.981 120 326.222 120C208.463 120 113 215.463 113 333.222C113 450.981 208.463 546.444 326.222 546.444Z" stroke="url(#paint1_linear_119:1391)" stroke-width="1.5" stroke-miterlimit="10"/>
<path opacity="0.4" d="M369.222 589.444C486.981 589.444 582.444 493.981 582.444 376.222C582.444 258.463 486.981 163 369.222 163C251.463 163 156 258.463 156 376.222C156 493.981 251.463 589.444 369.222 589.444Z" stroke="url(#paint2_linear_119:1391)" stroke-width="1.5" stroke-miterlimit="10"/>
<path opacity="0.2" d="M238.84 689.68C246.484 689.68 252.68 683.484 252.68 675.84C252.68 668.196 246.484 662 238.84 662C231.196 662 225 668.196 225 675.84C225 683.484 231.196 689.68 238.84 689.68Z" fill="url(#paint3_linear_119:1391)"/>
<path opacity="0.2" d="M581.84 187.68C589.484 187.68 595.68 181.484 595.68 173.84C595.68 166.196 589.484 160 581.84 160C574.196 160 568 166.196 568 173.84C568 181.484 574.196 187.68 581.84 187.68Z" fill="url(#paint4_linear_119:1391)"/>
<path opacity="0.2" d="M1159.84 232.68C1167.48 232.68 1173.68 226.484 1173.68 218.84C1173.68 211.196 1167.48 205 1159.84 205C1152.2 205 1146 211.196 1146 218.84C1146 226.484 1152.2 232.68 1159.84 232.68Z" fill="url(#paint5_linear_119:1391)"/>
<path opacity="0.2" d="M227.84 462.68C235.484 462.68 241.68 456.484 241.68 448.84C241.68 441.196 235.484 435 227.84 435C220.196 435 214 441.196 214 448.84C214 456.484 220.196 462.68 227.84 462.68Z" fill="url(#paint6_linear_119:1391)"/>
<path opacity="0.2" d="M982.86 375.347L341.681 -265.832C293.457 -314.056 215.391 -314.056 167.168 -265.832C118.944 -217.609 118.944 -139.543 167.168 -91.3191L634.05 375.347H982.86Z" fill="url(#paint7_linear_119:1391)"/>
<path opacity="0.2" d="M581.86 730.347L-59.3191 89.1677C-107.543 40.9441 -185.609 40.9441 -233.832 89.1677C-282.056 137.391 -282.056 215.457 -233.832 263.681L233.05 730.347H581.86Z" fill="url(#paint8_linear_119:1391)"/>
<path opacity="0.2" d="M761.86 535.347L120.681 -105.832C72.4573 -154.056 -5.60869 -154.056 -53.8323 -105.832C-102.056 -57.6087 -102.056 20.4573 -53.8323 68.6809L413.05 535.347H761.86Z" fill="url(#paint9_linear_119:1391)"/>
</g>
<defs>
<linearGradient id="paint0_linear_119:1391" x1="135.278" y1="147.411" x2="438.999" y2="451.132" gradientUnits="userSpaceOnUse">
<stop stop-color="#44FFDD"/>
<stop offset="0.7426" stop-color="#44FFDD" stop-opacity="0"/>
</linearGradient>
<linearGradient id="paint1_linear_119:1391" x1="174.278" y1="181.411" x2="477.999" y2="485.132" gradientUnits="userSpaceOnUse">
<stop stop-color="#44FFDD"/>
<stop offset="0.7426" stop-color="#44FFDD" stop-opacity="0"/>
</linearGradient>
<linearGradient id="paint2_linear_119:1391" x1="217.278" y1="224.411" x2="520.999" y2="528.132" gradientUnits="userSpaceOnUse">
<stop stop-color="#44FFDD"/>
<stop offset="0.7426" stop-color="#44FFDD" stop-opacity="0"/>
</linearGradient>
<linearGradient id="paint3_linear_119:1391" x1="229.045" y1="666.183" x2="248.543" y2="685.681" gradientUnits="userSpaceOnUse">
<stop stop-color="#44FFDD"/>
<stop offset="0.1012" stop-color="#44FFDD" stop-opacity="0.8847"/>
<stop offset="0.8778" stop-color="#44FFDD" stop-opacity="0"/>
</linearGradient>
<linearGradient id="paint4_linear_119:1391" x1="572.045" y1="164.183" x2="591.543" y2="183.681" gradientUnits="userSpaceOnUse">
<stop stop-color="#44FFDD"/>
<stop offset="0.1012" stop-color="#44FFDD" stop-opacity="0.8847"/>
<stop offset="0.8778" stop-color="#44FFDD" stop-opacity="0"/>
</linearGradient>
<linearGradient id="paint5_linear_119:1391" x1="1150.05" y1="209.183" x2="1169.54" y2="228.681" gradientUnits="userSpaceOnUse">
<stop stop-color="#44FFDD"/>
<stop offset="0.1012" stop-color="#44FFDD" stop-opacity="0.8847"/>
<stop offset="0.8778" stop-color="#44FFDD" stop-opacity="0"/>
</linearGradient>
<linearGradient id="paint6_linear_119:1391" x1="218.045" y1="439.183" x2="237.543" y2="458.681" gradientUnits="userSpaceOnUse">
<stop stop-color="#44FFDD"/>
<stop offset="0.1012" stop-color="#44FFDD" stop-opacity="0.8847"/>
<stop offset="0.8778" stop-color="#44FFDD" stop-opacity="0"/>
</linearGradient>
<linearGradient id="paint7_linear_119:1391" x1="433.577" y1="-354.354" x2="652.803" y2="463.81" gradientUnits="userSpaceOnUse">
<stop stop-color="#44FFDD"/>
<stop offset="0.1012" stop-color="#44FFDD" stop-opacity="0.8847"/>
<stop offset="0.8778" stop-color="#44FFDD" stop-opacity="0"/>
</linearGradient>
<linearGradient id="paint8_linear_119:1391" x1="32.577" y1="0.646405" x2="251.803" y2="818.81" gradientUnits="userSpaceOnUse">
<stop stop-color="#44FFDD"/>
<stop offset="0.1012" stop-color="#44FFDD" stop-opacity="0.8847"/>
<stop offset="0.8778" stop-color="#44FFDD" stop-opacity="0"/>
</linearGradient>
<linearGradient id="paint9_linear_119:1391" x1="212.577" y1="-194.354" x2="431.803" y2="623.81" gradientUnits="userSpaceOnUse">
<stop stop-color="#44FFDD"/>
<stop offset="0.1012" stop-color="#44FFDD" stop-opacity="0.8847"/>
<stop offset="0.8778" stop-color="#44FFDD" stop-opacity="0"/>
</linearGradient>
<clipPath id="clip0_119:1391">
<rect width="1440" height="1024" fill="white"/>
</clipPath>
</defs>
</svg>
