<svg width="330" height="302" viewBox="0 0 330 302" fill="none" xmlns="http://www.w3.org/2000/svg">
<path d="M250.211 281.854C284.715 262.507 310.395 228.816 322.087 191.018C310.395 228.816 284.716 262.507 250.211 281.854ZM322.632 189.215C328.531 169.322 330.647 148.455 329.382 127.742C326.914 132.08 323.755 136.394 320.112 140.382C321.634 113.698 317.287 86.6082 307.886 61.5415C302.903 48.2482 295.779 34.9522 286.498 24.1375C300.454 35.9775 310.679 53.4282 317.219 70.8749C331.33 108.503 334.056 150.687 322.632 189.215Z" fill="#DCDCE4"/>
<path d="M170.503 301.536C149.515 301.536 128.376 298.081 108.412 291.779C128.372 298.08 149.511 301.533 170.493 301.535C188.083 301.535 205.56 299.109 222.163 293.901C222.163 293.903 222.163 293.904 222.164 293.905C205.565 299.113 188.089 301.537 170.503 301.536ZM223.461 293.492C223.461 293.491 223.461 293.491 223.461 293.488C225.424 292.853 227.376 292.179 229.312 291.465C229.308 287.465 229.119 283.015 228.831 278.548C232.924 276.732 236.945 274.724 240.876 272.52C275.381 253.173 301.06 219.483 312.752 181.684C312.937 181.084 313.119 180.483 313.297 179.881C317.111 167.02 319.348 153.751 320.111 140.381C323.753 136.393 326.912 132.08 329.38 127.741C330.645 148.455 328.529 169.321 322.631 189.215C322.452 189.816 322.271 190.417 322.085 191.017C310.393 228.816 284.713 262.507 250.209 281.853C241.664 286.645 232.705 290.504 223.461 293.492ZM108.047 291.663C105.273 290.783 102.516 289.848 99.7746 288.855C99.7759 288.853 99.7759 288.852 99.7772 288.849C100.825 289.229 101.877 289.601 102.931 289.965C104.629 290.553 106.336 291.119 108.047 291.663ZM98.4946 288.387C78.8813 281.141 60.2933 270.937 44.9186 256.837C42.0026 254.164 39.2079 251.343 36.5586 248.388C53.0746 263.229 73.1839 273.676 94.2386 280.856L93.8626 286.599C95.3999 287.209 96.9439 287.801 98.4946 288.377C98.4946 288.381 98.4946 288.383 98.4946 288.387Z" fill="#DCDCE4"/>
<path d="M170.494 301.535C149.511 301.534 128.373 298.08 108.413 291.779C128.363 298.078 149.491 301.527 170.465 301.528C188.062 301.528 205.549 299.1 222.159 293.891C222.161 293.895 222.162 293.899 222.163 293.902C205.561 299.11 188.083 301.535 170.494 301.535ZM223.462 293.488C223.45 289.296 223.355 285.105 223.178 280.915C225.078 280.166 226.962 279.377 228.831 278.549C229.119 283.015 229.309 287.466 229.313 291.466C227.377 292.179 225.425 292.854 223.462 293.488ZM108.413 291.779C108.369 291.765 108.323 291.751 108.279 291.736C108.274 291.735 108.27 291.734 108.265 291.732C108.227 291.72 108.191 291.708 108.155 291.698C108.139 291.692 108.123 291.687 108.107 291.682C108.087 291.677 108.067 291.67 108.047 291.663C106.337 291.119 104.63 290.554 102.931 289.966C104.751 290.595 106.578 291.199 108.413 291.779ZM98.4953 288.378C96.9446 287.802 95.4006 287.21 93.8633 286.599L94.2393 280.856C95.7313 281.366 97.2233 281.856 98.7246 282.332C98.734 282.336 98.7446 282.339 98.7553 282.343C98.7713 282.348 98.7886 282.354 98.806 282.359C98.6993 284.36 98.5953 286.364 98.4953 288.378Z" fill="#DADDE3"/>
<path d="M170.464 301.528C149.491 301.527 128.363 298.078 108.412 291.779C106.577 291.199 104.751 290.595 102.931 289.966C101.877 289.602 100.825 289.23 99.7773 288.85C99.7987 288.79 99.812 288.724 99.816 288.656C99.9133 286.69 100.015 284.727 100.119 282.771C103.029 283.674 105.965 284.516 108.92 285.295C125.925 289.783 143.599 292.203 161.169 292.203C181.979 292.203 202.637 288.808 221.864 281.427C222.031 285.514 222.119 289.603 222.128 293.694C222.128 293.762 222.139 293.828 222.159 293.891C205.548 299.1 188.061 301.528 170.464 301.528Z" fill="#DCDCE4"/>
<path d="M222.794 294.359C222.501 294.359 222.253 294.17 222.163 293.906C222.162 293.905 222.162 293.903 222.162 293.902C222.161 293.899 222.159 293.895 222.158 293.891C222.138 293.829 222.127 293.762 222.127 293.694C222.118 289.603 222.03 285.514 221.863 281.427C222.302 281.259 222.741 281.089 223.177 280.915C223.354 285.105 223.449 289.297 223.461 293.489C223.461 293.491 223.461 293.491 223.461 293.493C223.461 293.559 223.461 293.625 223.461 293.691C223.462 294.059 223.165 294.358 222.795 294.359C222.795 294.359 222.795 294.359 222.794 294.359Z" fill="#DCDCE4"/>
<path d="M99.1519 289.29C99.1399 289.29 99.1292 289.29 99.1186 289.29C98.7506 289.271 98.4666 288.958 98.4852 288.591C98.4879 288.523 98.4919 288.454 98.4959 288.387C98.4959 288.383 98.4959 288.382 98.4959 288.378C98.5959 286.365 98.6999 284.361 98.8066 282.359C98.8132 282.361 98.8213 282.363 98.8279 282.366C98.8599 282.375 98.8906 282.386 98.9212 282.395C98.9306 282.398 98.9412 282.402 98.9492 282.405C98.9932 282.418 99.0359 282.431 99.0799 282.446C99.4252 282.555 99.7719 282.663 100.12 282.771C100.016 284.727 99.9146 286.69 99.8172 288.657C99.8132 288.725 99.7999 288.79 99.7786 288.85C99.7772 288.853 99.7772 288.854 99.7759 288.855C99.6812 289.111 99.4359 289.29 99.1519 289.29Z" fill="#DCDCE4"/>
<path d="M99.2715 82.2793C96.8648 75.4953 94.8915 68.746 94.4222 61.758C94.1582 57.826 94.6289 53.3407 97.7275 50.906C99.2835 49.682 101.181 49.2247 103.172 49.2247C105.237 49.2247 107.405 49.7153 109.397 50.3486C109.352 49.642 108.974 49.0086 108.624 48.3953C108.273 47.7806 107.924 47.122 107.94 46.4167C107.956 45.71 108.476 44.966 109.182 44.9607C109.185 44.9607 109.188 44.9607 109.19 44.9607C109.785 44.9607 110.253 45.4487 110.644 45.9007C111.186 46.5287 111.73 47.1566 111.918 47.8233C114.878 37.3126 124.04 28.8073 134.738 26.6313C136.592 26.254 138.475 26.07 140.359 26.07C149.349 26.07 158.302 30.2633 163.605 37.6766C163.89 37.634 164.177 37.5926 164.464 37.5513C155.88 44.6913 147.342 51.966 138.493 59.0807C138.107 59.0193 137.725 58.9233 137.356 58.786C135.306 58.018 133.778 56.01 133.586 53.8313C132.89 57.7646 130.273 61.89 126.509 64.2967C124.042 65.8727 121.113 66.6913 118.188 66.6913C116.646 66.6913 115.106 66.4647 113.636 66.0007C114.3 69.3807 114.361 72.7513 113.853 75.9313C109.146 78.3073 104.261 80.3806 99.2715 82.2793Z" fill="#DCDCE4"/>
<path d="M113.85 75.9307C114.358 72.7507 114.297 69.38 113.633 66C115.103 66.464 116.643 66.6907 118.185 66.6907C121.11 66.6907 124.039 65.872 126.506 64.296C130.27 61.8894 132.887 57.764 133.583 53.8307C133.775 56.0093 135.303 58.0174 137.353 58.7854C137.722 58.9227 138.105 59.0187 138.49 59.08C135.309 61.6387 132.086 64.176 128.808 66.6773C124.12 70.2547 119.097 73.28 113.85 75.9307Z" fill="#DCDCE4"/>
<path d="M128.808 66.6781C97.1848 90.8074 50.3515 89.8367 21.9768 117.71C4.60348 134.774 -2.61119 160.767 0.83948 184.871C4.29281 208.977 17.6368 231.047 35.5848 247.505C53.5315 263.963 75.8568 275.114 99.0781 282.446C145.547 297.118 198.371 296.355 240.875 272.521C275.927 252.867 301.873 218.41 313.297 179.882C324.721 141.354 321.994 99.1701 307.883 61.5421C297.538 33.9461 277.978 6.34204 249.006 0.943377C225.922 -3.35929 202.59 7.64607 183.933 21.9034C165.277 36.1594 148.02 52.0167 128.808 66.6781Z" fill="#F35E58"/>
<path d="M313.299 179.882C319.198 159.989 321.315 139.121 320.049 118.409C309.299 137.303 285.447 155.725 265.617 148.797C239.77 139.767 242.934 97.6941 216.631 97.3941C190.327 97.0941 172.781 135.673 164.773 158.343C156.763 181.013 136.385 192.111 112.957 189.099C89.5275 186.089 77.8355 146.749 50.6021 145.239C29.3661 144.062 12.9088 159.11 0.6875 183.527C0.7435 183.975 0.778155 184.426 0.842155 184.871C4.29549 208.977 17.6395 231.047 35.5875 247.505C53.5342 263.963 75.8595 275.114 99.0808 282.446C145.55 297.118 198.374 296.355 240.878 272.521C275.93 252.867 301.875 218.41 313.299 179.882Z" fill="#F25344"/>
<path d="M108.922 285.295C105.968 284.516 103.032 283.674 100.121 282.771C100.502 282.888 100.886 283.007 101.269 283.123C103.801 283.892 106.357 284.619 108.922 285.295Z" fill="#C3BBD8"/>
<path d="M100.12 282.771C99.7721 282.663 99.4254 282.555 99.0801 282.446C99.4268 282.555 99.7721 282.663 100.12 282.771Z" fill="#C3BBD8"/>
<path d="M96.7489 180.834C93.5489 178.035 90.4783 174.755 87.4143 171.339L97.5876 163.345L96.7489 180.834ZM143.513 150.282L124.566 142.145L136.4 132.845C136.4 132.845 134.472 118.618 134.109 118.618C134.03 118.618 133.266 118.714 132.012 118.714C127.485 118.714 116.589 117.461 108.604 105.923C108.604 105.923 103.108 108.497 97.1062 108.497C90.9182 108.497 84.1916 105.758 82.4062 94.6353L192.598 87.8327C192.598 87.8327 193.61 104.625 174.222 104.625C173.009 104.625 171.716 104.559 170.337 104.419C170.337 104.419 161.596 117.342 146.01 118.002L147.781 131.131L159.202 139.666L143.513 150.282Z" fill="#F2554F"/>
<path d="M161.16 292.202C143.595 292.201 125.919 289.781 108.92 285.295C106.355 284.619 103.799 283.893 101.267 283.123C120.571 288.993 140.92 292.195 161.13 292.195C178.948 292.195 196.658 289.706 213.455 284.359C213.38 250.761 207.98 217.179 197.5 185.259L193.584 165.362L240.12 200.138C240.12 200.138 249.056 232.727 216.611 240.111C216.611 240.111 219.962 265.177 219.979 282.133C201.286 289.023 181.295 292.202 161.16 292.202ZM99.079 282.446C99.035 282.431 98.9924 282.418 98.9484 282.405C98.939 282.402 98.9297 282.398 98.9204 282.395C98.8897 282.386 98.8591 282.375 98.8271 282.366C98.8031 282.358 98.7791 282.35 98.7551 282.343C98.7444 282.339 98.7337 282.337 98.7244 282.333C97.0991 281.817 95.479 281.281 93.8657 280.725C95.5964 281.321 97.335 281.895 99.079 282.446ZM89.8231 279.289C88.0511 278.638 86.2857 277.963 84.5297 277.266L86.2737 250.661C86.2737 250.661 37.5697 249.171 46.7137 203.322L87.4137 171.339C90.4777 174.755 93.5484 178.035 96.7484 180.834L96.671 182.457C95.071 201.987 93.4737 221.518 92.0964 241.42C92.0964 241.429 92.0951 241.438 92.0951 241.447C92.0911 241.505 92.087 241.562 92.083 241.62C91.7937 245.806 91.5137 250.01 91.2457 254.234C90.7217 262.502 90.2417 270.846 89.8231 279.291" fill="#DA4942"/>
<path d="M256.904 25.8151C256.415 22.3071 253.651 19.5418 250.138 19.0938C235.907 17.2792 222.222 16.9618 208.711 17.8711C204.706 18.1418 201.58 21.4271 201.446 25.4405C201.094 35.8231 200.999 46.3925 201.146 57.0525C198.25 59.6565 195.374 62.3458 192.598 65.4231C195.279 67.9458 198.287 70.1232 201.516 71.8938C201.915 83.0685 202.574 94.3018 203.534 105.506C203.851 109.198 206.75 112.156 210.432 112.579C223.3 114.055 236.316 114.242 249.223 113.14C252.795 112.835 255.699 110.136 256.288 106.602C260.78 79.7005 260.632 52.5085 256.904 25.8151Z" fill="white"/>
<path d="M256.323 106.411C256.328 106.382 256.333 106.35 256.339 106.319C256.333 106.35 256.328 106.381 256.323 106.411ZM256.348 106.257C256.352 106.233 256.356 106.21 256.36 106.185C256.356 106.209 256.352 106.233 256.348 106.257Z" fill="#F2554F"/>
<path d="M232.634 113.847C225.217 113.847 217.8 113.424 210.432 112.579C206.749 112.156 203.85 109.197 203.533 105.505C203.066 100.059 202.673 94.6053 202.344 89.1547C206.344 90.4 213.233 92.0773 221.366 92.076C233.142 92.076 247.522 88.56 259.477 75.1307C259.077 85.4933 258.062 95.86 256.357 106.184C256.353 106.209 256.349 106.232 256.345 106.256C256.342 106.277 256.338 106.299 256.336 106.319C256.33 106.349 256.325 106.381 256.32 106.411C256.317 106.427 256.314 106.443 256.312 106.459C256.304 106.507 256.296 106.553 256.288 106.601C256.284 106.628 256.278 106.656 256.274 106.684C255.653 110.179 252.766 112.836 249.222 113.14C243.705 113.611 238.17 113.847 232.634 113.847Z" fill="#E1D6ED"/>
<path d="M257.567 25.7217C257.037 21.919 254.039 18.919 250.223 18.4324C249.858 18.3857 249.525 18.6443 249.478 19.0097C249.431 19.375 249.689 19.7084 250.054 19.755C253.267 20.1644 255.798 22.6937 256.246 25.907C256.297 26.271 256.634 26.5257 256.998 26.475C257.363 26.4244 257.618 26.087 257.567 25.7217Z" fill="#262554"/>
<path d="M245.81 17.9163C238.159 17.099 230.656 16.7123 223.244 16.7123C218.35 16.7123 213.496 16.8803 208.666 17.2057C204.314 17.5003 200.924 21.067 200.778 25.4176C200.531 32.683 200.411 40.039 200.411 47.4536C200.411 50.647 200.434 53.851 200.478 57.063L201.144 57.0523L200.699 56.5577C197.796 59.167 194.902 61.8723 192.102 64.9763C191.859 65.2456 191.875 65.6603 192.139 65.9083C194.863 68.471 197.916 70.6803 201.195 72.479L201.515 71.8937L200.85 71.9176C201.247 83.1016 201.907 94.347 202.868 105.563C203.215 109.574 206.359 112.783 210.355 113.24C217.747 114.088 225.188 114.514 232.63 114.514C238.186 114.514 243.742 114.276 249.278 113.804C253.156 113.472 256.305 110.546 256.945 106.711C259.261 92.839 260.347 78.891 260.347 64.9763C260.347 55.0536 259.795 45.1497 258.744 35.299C258.704 34.9337 258.376 34.6683 258.011 34.707C257.644 34.7456 257.379 35.075 257.418 35.4417C258.464 45.2457 259.014 55.103 259.014 64.9763C259.014 78.8216 257.934 92.695 255.63 106.491C255.09 109.728 252.432 112.198 249.164 112.475C243.666 112.946 238.147 113.18 232.63 113.18C225.239 113.18 217.848 112.759 210.507 111.916C207.139 111.531 204.486 108.82 204.198 105.448C203.238 94.2577 202.579 83.0337 202.182 71.8697C202.174 71.6337 202.043 71.423 201.836 71.3096C198.655 69.5643 195.692 67.4216 193.052 64.9376L192.596 65.423L193.091 65.8697C195.843 62.8177 198.7 60.147 201.59 57.5483C201.734 57.4203 201.814 57.2363 201.811 57.0443C201.767 53.839 201.744 50.6416 201.744 47.4536C201.744 40.0536 201.864 32.7123 202.11 25.463C202.235 21.787 205.096 18.7817 208.755 18.5363C213.556 18.2123 218.38 18.0456 223.244 18.0456C230.61 18.0456 238.064 18.4297 245.668 19.2417C246.034 19.2803 246.363 19.015 246.402 18.6497C246.44 18.283 246.175 17.955 245.81 17.9163Z" fill="#262554"/>
<path d="M224.321 80.8939C224.312 79.0726 224.87 77.5699 225.997 76.3859C227.124 75.2059 228.688 74.6072 230.688 74.5979C232.686 74.5885 234.256 75.1699 235.394 76.3392C236.533 77.5112 237.108 79.0086 237.117 80.8299C237.125 82.6512 236.566 84.1539 235.44 85.3365C234.313 86.5179 232.75 87.1152 230.75 87.1259C228.75 87.1352 227.181 86.5539 226.042 85.3845C224.904 84.2125 224.33 82.7166 224.321 80.8939ZM226.476 72.1526C225.718 71.7566 225.005 71.0392 224.333 69.9979C223.661 68.9579 223.321 67.7258 223.314 66.3045C223.308 64.9272 223.669 63.8926 224.398 63.1992C225.128 62.5086 226.202 61.9819 227.622 61.6179L232.814 60.3246C235.033 59.7366 236.138 58.6645 236.13 57.1099C236.125 56.2659 235.71 55.5352 234.886 54.9166C234.061 54.2992 232.649 53.9952 230.65 54.0059C228.828 54.0139 227.12 54.2552 225.522 54.7299C223.925 55.2059 222.638 55.7552 221.665 56.3819C220.906 55.8099 220.258 55.1125 219.722 54.2925C219.184 53.4752 218.913 52.4872 218.906 51.3312C218.901 50.1765 219.229 49.1646 219.892 48.2939C220.554 47.4246 221.472 46.7099 222.646 46.1485C223.82 45.5872 225.217 45.1686 226.838 44.8939C228.458 44.6192 230.246 44.4766 232.201 44.4659C237.442 44.4406 241.414 45.5872 244.116 47.9059C246.814 50.2245 248.173 53.2739 248.193 57.0485C248.229 64.1565 243.23 68.7352 233.201 70.7859L226.476 72.1526Z" fill="#262554"/>
<path d="M242.883 203.487C243.014 194.244 239.865 185.343 235.115 177.322C235.115 177.322 192.167 180.094 190.375 195.935C188.585 211.775 242.883 203.487 242.883 203.487Z" fill="#F9BDA3"/>
<path d="M197.157 198.547C210.869 193.64 223.756 186.434 235.117 177.322C233.192 174.071 231.005 170.966 228.668 168.039C218.022 154.714 203.88 144.334 188.153 137.752C188.153 137.752 184.949 155.651 186.706 168.15C188.466 180.647 197.157 198.547 197.157 198.547Z" fill="#F8A443"/>
<path d="M231.836 172.268C220.664 181.167 208.268 188.515 195.094 194.03C196.311 196.804 197.156 198.547 197.156 198.547C210.868 193.64 223.755 186.434 235.116 177.322C234.092 175.594 232.991 173.91 231.836 172.268Z" fill="#FABE74"/>
<path d="M50.0758 185.131C49.7145 185.9 49.3691 186.679 49.0411 187.468C45.7451 195.402 44.4972 204.387 45.7825 212.836C45.7825 212.836 66.1278 217.812 87.9612 205.066C87.9612 205.066 80.4972 197.016 66.7198 190.039C52.9438 183.063 50.0758 185.131 50.0758 185.131Z" fill="#F9BDA3"/>
<path d="M98.6035 142.167C91.2515 145.644 84.2049 149.763 77.5782 154.479C66.2702 162.527 55.9569 172.613 50.0742 185.131C59.1009 192.753 69.8422 198.335 81.2729 201.325L101.376 203.321C101.376 203.321 103.417 195.328 103.068 177.321C102.718 159.315 98.6035 142.167 98.6035 142.167Z" fill="#F8A443"/>
<path d="M102.025 199.689L89.3916 198.051C76.1182 194.681 63.6222 188.301 53.0956 179.544C51.9969 181.352 50.9782 183.209 50.0742 185.131C59.0996 192.753 69.8422 198.335 81.2729 201.325L101.377 203.321C101.377 203.321 101.674 202.141 102.025 199.689Z" fill="#FABE74"/>
<path d="M99.0802 282.445C135.983 294.096 176.888 295.999 213.456 284.359C213.382 250.76 207.982 217.179 197.502 185.259L188.154 137.752C182.588 135.423 176.547 133.528 170.338 132.131L143.514 150.281L111.955 136.727C107.338 138.355 102.836 140.165 98.6042 142.167L96.6722 182.456C94.0722 214.204 91.4776 245.96 89.8242 279.291C92.8882 280.411 95.9749 281.464 99.0802 282.445Z" fill="#F8A443"/>
<path d="M91.2461 254.233C91.5141 250.009 91.7941 245.805 92.0834 241.619C91.7941 245.807 91.5141 250.009 91.2461 254.233ZM92.0954 241.447C92.0954 241.437 92.0967 241.428 92.0967 241.419C92.0967 241.427 92.0954 241.439 92.0954 241.447Z" fill="#C03F3F"/>
<path d="M91.2461 254.233C91.5141 250.009 91.7941 245.807 92.0834 241.619C92.0874 241.56 92.0914 241.504 92.0954 241.447C92.0954 241.439 92.0967 241.427 92.0967 241.419C92.7221 232.393 93.3928 223.444 94.0888 214.535C120.915 207.832 159.289 206.307 187.655 206.307C193.463 206.307 198.857 206.371 203.641 206.468C206.465 217.621 208.697 228.924 210.306 240.316C183.007 239.684 159.515 221.472 159.515 221.472C131.022 248.431 102.538 253.369 91.2461 254.233Z" fill="#F7933A"/>
<path d="M165.31 131.131L143.512 145.273L116.352 135.259C114.876 135.73 113.406 136.215 111.953 136.727C119.914 148.33 131.45 157.527 144.978 163.506C155.692 155.181 164.434 144.345 170.336 132.131C168.672 131.758 166.993 131.433 165.31 131.131Z" fill="#FABE74"/>
<path d="M141.652 129.524C133.368 130.594 124.709 132.59 116.344 135.255C123.269 144.923 132.872 152.734 144.756 157.806C153.137 150.231 160.124 141.135 165.34 131.114C157.386 129.691 149.286 129.11 141.652 129.524Z" fill="#F9BDA3"/>
<path d="M214.127 284.357C214.053 250.688 208.634 217.039 198.133 185.051C198.018 184.701 197.641 184.511 197.291 184.625C196.941 184.74 196.75 185.117 196.866 185.467C207.323 217.32 212.721 250.832 212.794 284.36C212.795 284.728 213.094 285.025 213.462 285.025C213.831 285.024 214.129 284.725 214.127 284.357Z" fill="#262554"/>
<path d="M96.0092 182.402C93.4092 214.152 90.8065 245.91 89.1532 279.258C89.1345 279.624 89.4185 279.938 89.7865 279.956C90.1532 279.974 90.4665 279.691 90.4852 279.323C92.1372 246.003 94.7372 214.262 97.3372 182.511C97.3679 182.144 97.0946 181.822 96.7279 181.792C96.3612 181.762 96.0385 182.035 96.0092 182.402Z" fill="#262554"/>
<path d="M169.008 189.058C170.27 184.611 171.534 180.163 172.8 175.716C172.99 175.042 173.189 174.352 173.586 173.774C173.984 173.198 174.625 172.738 175.325 172.744C176.502 172.756 177.282 173.994 177.56 175.138C178.282 178.135 177.146 181.232 176.033 184.108L169.008 189.058Z" fill="#F9BDA3"/>
<path d="M166.547 193.235C168.255 187.202 172.311 181.867 177.664 178.606C183.02 175.344 189.62 174.191 195.763 175.442C196.7 175.631 197.799 176.05 197.967 176.991C198.176 178.155 196.826 178.93 195.708 179.327C195.536 179.388 195.364 179.451 195.192 179.511C196.079 179.507 196.967 179.548 197.851 179.636C198.604 179.71 199.37 179.822 200.032 180.183C200.695 180.543 201.243 181.199 201.282 181.954C201.318 182.699 200.851 183.395 200.247 183.835C199.646 184.274 198.918 184.5 198.206 184.72C196.782 185.159 195.356 185.599 193.931 186.038C196.392 185.636 198.86 185.584 201.27 186.219C202.322 186.495 203.532 187.18 203.459 188.264C203.39 189.315 202.182 189.842 201.17 190.135C197.108 191.318 193.046 192.5 189.438 193.996C192.307 193.323 195.334 193.326 198.2 194.006C198.808 194.148 199.43 194.334 199.906 194.736C200.382 195.14 200.678 195.819 200.463 196.404C200.258 196.967 199.648 197.295 199.055 197.374C198.462 197.454 197.863 197.338 197.264 197.287C195.583 197.147 193.86 197.543 192.41 198.404C191.082 199.194 190.011 200.336 188.827 201.327C187.643 202.316 186.251 203.187 184.708 203.251L166.547 193.235Z" fill="#F9BDA3"/>
<path d="M195.189 178.844C190.333 178.866 185.491 180.208 181.329 182.72C181.015 182.911 180.913 183.32 181.104 183.635C181.295 183.951 181.704 184.052 182.02 183.862C185.967 181.476 190.581 180.198 195.196 180.178C195.564 180.176 195.861 179.876 195.86 179.508C195.857 179.14 195.559 178.843 195.189 178.844Z" fill="#262554"/>
<path d="M186.498 188.707C188.98 187.903 191.523 187.108 194.04 186.696C194.404 186.636 194.65 186.293 194.591 185.931C194.531 185.567 194.188 185.32 193.826 185.38C191.18 185.813 188.578 186.632 186.087 187.437C185.736 187.551 185.544 187.927 185.658 188.277C185.771 188.627 186.147 188.82 186.498 188.707Z" fill="#262554"/>
<path d="M166.549 193.235L167.191 193.416C168.849 187.549 172.807 182.344 178.013 179.175C181.844 176.841 186.341 175.613 190.829 175.615C192.443 175.615 194.053 175.773 195.633 176.095C196.059 176.179 196.505 176.32 196.815 176.507C197.132 176.701 197.271 176.883 197.312 177.107L197.313 177.108L197.324 177.229C197.323 177.352 197.292 177.46 197.212 177.592C197.096 177.787 196.852 178.012 196.536 178.207C196.221 178.404 195.843 178.573 195.488 178.699C195.313 178.76 195.141 178.823 194.971 178.883C194.664 178.992 194.481 179.305 194.537 179.627C194.593 179.947 194.872 180.18 195.197 180.177H195.327C196.148 180.177 196.969 180.217 197.788 180.299C198.521 180.368 199.195 180.481 199.716 180.768L199.717 180.769C199.967 180.904 200.199 181.1 200.357 181.317C200.519 181.535 200.607 181.763 200.617 181.987V181.985L200.619 182.035C200.629 182.455 200.316 182.967 199.857 183.296C199.379 183.649 198.724 183.865 198.011 184.083C196.587 184.521 195.161 184.961 193.737 185.401C193.403 185.504 193.205 185.849 193.285 186.191C193.365 186.531 193.696 186.752 194.041 186.696C195.167 186.512 196.285 186.404 197.392 186.404C198.647 186.404 199.885 186.543 201.103 186.863C201.545 186.977 202.024 187.187 202.343 187.436C202.669 187.695 202.797 187.927 202.797 188.171L202.796 188.22C202.776 188.48 202.637 188.689 202.293 188.933C201.956 189.167 201.457 189.359 200.985 189.495C196.924 190.677 192.841 191.865 189.185 193.38C188.864 193.513 188.699 193.869 188.805 194.201C188.912 194.532 189.253 194.725 189.593 194.645C190.969 194.321 192.385 194.16 193.801 194.16C195.231 194.16 196.66 194.325 198.048 194.655C198.636 194.789 199.149 194.961 199.477 195.245V195.244C199.715 195.44 199.877 195.773 199.869 195.996L199.839 196.176C199.796 196.293 199.704 196.407 199.547 196.509C199.392 196.611 199.177 196.685 198.969 196.712C198.859 196.727 198.744 196.733 198.623 196.733C198.247 196.735 197.812 196.665 197.324 196.623C197.083 196.603 196.841 196.592 196.601 196.592C195.016 196.593 193.437 197.02 192.071 197.831C190.637 198.688 189.547 199.863 188.401 200.816C187.265 201.769 185.983 202.537 184.683 202.585L184.711 203.251L185.032 202.667L166.872 192.651L166.549 193.235L166.228 193.819L184.388 203.835C184.496 203.895 184.615 203.923 184.739 203.917C186.524 203.836 188.025 202.863 189.256 201.839C190.48 200.809 191.531 199.699 192.752 198.977C193.905 198.292 195.256 197.925 196.601 197.925C196.805 197.925 197.009 197.935 197.212 197.951C197.628 197.985 198.099 198.065 198.623 198.067C198.792 198.067 198.967 198.057 199.145 198.035C199.532 197.983 199.919 197.855 200.268 197.631C200.613 197.409 200.929 197.077 201.092 196.633C201.168 196.423 201.203 196.205 201.203 195.996C201.195 195.276 200.837 194.657 200.34 194.228H200.339C199.715 193.705 198.987 193.508 198.355 193.356C196.865 193.003 195.333 192.827 193.801 192.827C192.284 192.827 190.767 193 189.288 193.347L189.44 193.996L189.696 194.612C193.255 193.136 197.297 191.957 201.357 190.775C201.897 190.616 202.509 190.399 203.047 190.033C203.576 189.679 204.076 189.1 204.127 188.308L204.131 188.171C204.131 187.385 203.675 186.775 203.16 186.381C202.637 185.98 202.02 185.727 201.441 185.573C200.1 185.22 198.744 185.071 197.392 185.071C196.2 185.071 195.008 185.187 193.827 185.38L193.933 186.037L194.131 186.675C195.555 186.236 196.98 185.796 198.404 185.357C199.116 185.135 199.919 184.897 200.643 184.373C201.347 183.856 201.941 183.043 201.952 182.035L201.949 181.921V181.92C201.923 181.389 201.717 180.912 201.429 180.523C201.139 180.133 200.765 179.821 200.352 179.597H200.353C199.549 179.163 198.691 179.049 197.919 178.972C197.057 178.887 196.192 178.844 195.327 178.844H195.191L195.195 179.511L195.417 180.14C195.592 180.077 195.764 180.016 195.935 179.955C196.499 179.752 197.124 179.468 197.655 179.049C197.919 178.839 198.163 178.592 198.349 178.289C198.535 177.988 198.659 177.623 198.657 177.229L198.625 176.872V176.873C198.499 176.157 198.007 175.659 197.497 175.361C196.981 175.056 196.411 174.893 195.899 174.788C194.229 174.448 192.529 174.281 190.829 174.281C186.099 174.281 181.369 175.571 177.32 178.036C171.819 181.388 167.664 186.853 165.908 193.053C165.824 193.352 165.956 193.668 166.228 193.819L166.549 193.235Z" fill="#262554"/>
<path d="M68.8119 205.328C81.8826 196.747 98.5519 195.036 113.977 197.596C129.4 200.159 143.872 206.633 157.952 213.433C158.753 213.821 159.553 214.209 160.355 214.599C145.855 225.073 130.809 234.84 114.001 240.743C103.488 244.433 92.2212 246.551 81.1706 245.132C70.1186 243.711 59.2879 238.463 52.5986 229.552C48.9132 224.641 46.6999 218.875 45.7812 212.836L68.8119 205.328Z" fill="#F9BDA3"/>
<path d="M157.952 213.433C143.872 206.633 129.4 200.159 113.978 197.596C113.464 197.511 112.946 197.444 112.43 197.368C113.683 197.787 138.372 206.093 149.647 214.592C149.647 214.592 89.5162 251.589 50.6016 226.536C51.2162 227.568 51.8709 228.581 52.5989 229.552C59.2882 238.463 70.1189 243.711 81.1709 245.132C92.2216 246.551 103.488 244.433 114.002 240.741C130.81 234.84 145.855 225.073 160.355 214.599C159.554 214.209 158.754 213.821 157.952 213.433Z" fill="#CC7650"/>
<path d="M62.0623 226.633C62.5569 228.459 63.9303 229.986 65.6956 230.669C66.3769 230.93 67.1009 231.057 67.8223 231.057C68.9716 231.057 70.1209 230.737 71.0969 230.103C71.4049 229.902 71.4929 229.49 71.2929 229.181C71.0916 228.871 70.6796 228.785 70.3702 228.985C69.6262 229.469 68.7223 229.725 67.8223 229.723C67.2569 229.725 66.6942 229.625 66.1742 229.425C64.8222 228.909 63.7209 227.686 63.3489 226.287C63.2543 225.931 62.8876 225.721 62.5329 225.817C62.1769 225.911 61.9663 226.278 62.0623 226.633Z" fill="#262554"/>
<path d="M69.1786 205.886C78.5013 199.765 89.7106 197.174 101 197.174C105.315 197.174 109.639 197.552 113.869 198.255C129.179 200.796 143.595 207.238 157.663 214.035C158.463 214.422 159.264 214.81 160.065 215.199L160.356 214.599L159.965 214.059C145.484 224.522 130.489 234.247 113.781 240.114C105.561 243.001 96.8946 244.91 88.2613 244.91C85.9213 244.91 83.5826 244.77 81.256 244.471C70.3506 243.071 59.6839 237.886 53.1333 229.153C52.9119 228.858 52.4946 228.799 52.1999 229.019C51.9053 229.241 51.8466 229.659 52.0666 229.953C58.8946 239.041 69.888 244.352 81.0866 245.794C83.4733 246.099 85.868 246.243 88.2613 246.243C97.092 246.243 105.901 244.294 114.223 241.372C131.132 235.434 146.229 225.627 160.747 215.14C160.936 215.003 161.041 214.775 161.02 214.542C161 214.308 160.857 214.102 160.648 214C159.847 213.611 159.045 213.222 158.243 212.834C144.152 206.028 129.624 199.522 114.087 196.939C109.788 196.226 105.392 195.84 101 195.84C89.5106 195.84 78.04 198.475 68.448 204.771C68.14 204.974 68.0533 205.387 68.256 205.695C68.4586 206.003 68.872 206.089 69.1786 205.886Z" fill="#262554"/>
<path d="M242.884 203.487C242.697 216.475 234.604 229.885 222.034 233.16C215.174 234.949 207.893 233.653 201.07 231.724C186.881 227.712 173.625 221.049 160.353 214.599C159.552 214.209 158.752 213.821 157.95 213.433C143.87 206.633 129.398 200.159 113.976 197.596C111.061 197.113 108.101 196.781 105.129 196.62C108.458 192.647 112.124 190.611 116.872 188.899C122.641 186.819 130.196 186.791 138.048 188.111L221.033 196.892L242.884 203.487Z" fill="#F9BDA3"/>
<path d="M222.036 233.16C232.756 230.367 240.2 220.199 242.28 209.212C237.603 215.104 228.5 223.559 214.257 224.52C192.156 226.013 166.313 211.999 150.572 205.916C143.133 203.041 133.381 201.24 125.16 200.137C136.475 203.356 147.325 208.301 157.952 213.433C158.753 213.821 159.553 214.209 160.355 214.599C173.627 221.049 186.883 227.712 201.072 231.724C207.895 233.653 215.177 234.949 222.036 233.16Z" fill="#CC7650"/>
<path d="M222.451 222.342C223.449 222.842 224.558 223.091 225.666 223.091C226.511 223.091 227.356 222.946 228.155 222.648C229.999 221.959 231.511 220.501 232.268 218.687C232.411 218.347 232.25 217.956 231.91 217.815C231.57 217.674 231.179 217.835 231.038 218.175C230.431 219.638 229.176 220.848 227.688 221.399C227.047 221.639 226.358 221.757 225.666 221.757C224.759 221.759 223.851 221.552 223.047 221.15C222.718 220.986 222.318 221.119 222.152 221.448C221.988 221.778 222.121 222.178 222.451 222.342Z" fill="#262554"/>
<path d="M242.22 203.477C242.129 209.836 240.096 216.32 236.552 221.593C233.006 226.871 227.969 230.927 221.869 232.515C219.638 233.097 217.356 233.345 215.048 233.345C210.454 233.345 205.766 232.359 201.254 231.081C187.146 227.095 173.924 220.453 160.648 213.999C159.845 213.611 159.045 213.221 158.242 212.833C144.152 206.028 129.624 199.521 114.086 196.939C111.149 196.451 108.165 196.117 105.168 195.953L105.132 196.62L105.642 197.048C108.89 193.18 112.404 191.224 117.1 189.525C120.238 188.393 123.962 187.877 128.002 187.877C131.166 187.877 134.522 188.193 137.94 188.768L137.98 188.773L220.965 197.555C221.33 197.593 221.66 197.328 221.698 196.963C221.737 196.596 221.472 196.268 221.105 196.229L138.12 187.448L138.05 188.111L138.161 187.453C134.681 186.868 131.254 186.545 128.002 186.544C123.85 186.545 119.981 187.071 116.648 188.272C111.849 189.996 108.033 192.112 104.621 196.191C104.458 196.385 104.42 196.652 104.52 196.885C104.621 197.117 104.842 197.271 105.096 197.285C108.042 197.445 110.977 197.775 113.869 198.255C129.178 200.796 143.594 207.237 157.662 214.035C158.462 214.421 159.264 214.809 160.065 215.199C173.33 221.645 186.621 228.329 200.892 232.365C205.462 233.657 210.264 234.677 215.048 234.679C217.45 234.679 219.849 234.42 222.205 233.805C228.674 232.119 233.968 227.832 237.658 222.337C241.35 216.84 243.456 210.125 243.553 203.496C243.558 203.128 243.264 202.825 242.896 202.82C242.528 202.815 242.225 203.109 242.22 203.477Z" fill="#262554"/>
<path d="M178.092 81.4026C182.452 74.572 182.832 65.3893 179.05 58.2213C182.54 54.252 184.018 47.9453 182.736 42.1C181.452 36.2546 177.298 31.0187 171.732 28.824C166.248 26.6613 160.101 27.4853 154.269 28.3426C147.856 19.3746 136.101 15.1213 125.402 17.2973C114.702 19.4733 105.542 27.9786 102.582 38.4893C102.394 37.8226 101.85 37.1946 101.308 36.5666C100.914 36.112 100.445 35.6213 99.8463 35.6267C99.1396 35.632 98.6196 36.376 98.6036 37.0826C98.5876 37.788 98.9369 38.4466 99.2876 39.0613C99.6383 39.6746 100.016 40.3079 100.061 41.0146C96.1476 39.7719 91.5609 39.0773 88.3916 41.572C85.2929 44.0066 84.8223 48.492 85.0863 52.424C85.7743 62.6773 89.7022 72.4133 93.4782 82.5053C102.804 92.812 116.956 97.4306 130.754 99.0813C139 100.068 147.466 100.132 155.488 97.9893C163.51 95.848 171.556 91.648 178.092 81.4026Z" fill="#24B59B"/>
<path d="M132.191 114.271C132.277 122.166 132.362 130.059 132.89 138.505C138.115 139.071 143.439 138.707 149.647 137.383C148.809 129.375 147.971 121.367 147.133 113.361L132.191 114.271Z" fill="#F9BDA3"/>
<path d="M147.782 119.557C147.565 117.492 147.349 115.426 147.133 113.361L132.191 114.272C132.214 116.418 132.239 118.568 132.273 120.726C135.954 121.07 141.478 121.105 147.782 119.557Z" fill="#CC7650"/>
<path d="M100.968 79.24C96.251 76.072 89.4257 76.6747 85.171 80.4387C80.9137 84.2027 79.455 90.7187 81.4644 96.0333C83.475 101.348 88.7137 105.217 94.363 105.832C100.011 106.447 105.843 103.899 109.442 99.5L100.968 79.24Z" fill="#F9BDA3"/>
<path d="M87.3713 91.862C89.218 89.0687 92.5806 87.2967 95.9313 87.302C96.1926 87.302 96.454 87.3127 96.7153 87.334C97.082 87.3647 97.4046 87.0913 97.4353 86.7247C97.4646 86.358 97.1927 86.0367 96.826 86.006C96.5273 85.9807 96.2286 85.9687 95.9313 85.9687C92.1193 85.974 88.3807 87.9393 86.2593 91.1247C86.0567 91.4313 86.1393 91.846 86.446 92.0487C86.754 92.2527 87.1673 92.1687 87.3713 91.862Z" fill="#262554"/>
<path d="M90.8978 87.6833C91.5458 91.1913 93.2859 94.4846 95.8485 96.9646C96.1139 97.2206 96.5352 97.2139 96.7912 96.9499C97.0472 96.6846 97.0405 96.2633 96.7765 96.0073C94.4192 93.7286 92.8045 90.6766 92.2098 87.4419C92.1432 87.0793 91.7952 86.8406 91.4338 86.9073C91.0712 86.9739 90.8312 87.3219 90.8978 87.6833Z" fill="#262554"/>
<path d="M172.809 76.3309C176.964 72.4536 183.796 71.9603 188.596 75.0003C193.397 78.0403 195.876 84.2403 194.737 89.8069C193.599 95.3749 189.041 100.028 183.563 101.535C178.084 103.039 171.92 101.452 167.668 97.6816L172.809 76.3309Z" fill="#F9BDA3"/>
<path d="M189.219 85.7241C187.03 83.3561 183.839 82.0321 180.639 82.0307C179.744 82.0307 178.847 82.1347 177.972 82.3507C177.615 82.4401 177.396 82.8014 177.484 83.1587C177.574 83.5161 177.935 83.7334 178.292 83.6454C179.058 83.4561 179.847 83.3641 180.639 83.3641C183.471 83.3614 186.328 84.5534 188.24 86.6281C188.49 86.8987 188.911 86.9161 189.182 86.6654C189.452 86.4161 189.47 85.9948 189.219 85.7241Z" fill="#262554"/>
<path d="M182.761 83.0337C182.688 86.3203 181.578 89.5924 179.617 92.2164C179.397 92.5124 179.457 92.9297 179.752 93.1497C180.046 93.3697 180.465 93.3097 180.685 93.015C182.818 90.1577 184.013 86.6297 184.094 83.0643C184.102 82.6963 183.81 82.391 183.442 82.383C183.074 82.375 182.769 82.667 182.761 83.0337Z" fill="#262554"/>
<path d="M174.112 74.1884C173.146 84.7337 171.348 95.7577 164.83 104.103C155.616 115.898 137.974 119.418 124.136 113.707C110.302 107.998 100.602 94.3083 98.6016 78.9057C103.871 73.4217 105.95 65.0683 104.299 56.667C108.562 58.0097 113.406 57.3697 117.172 54.963C120.936 52.5564 123.554 48.431 124.25 44.4977C124.442 46.6763 125.97 48.6843 128.019 49.451C130.07 50.2177 132.539 49.7084 133.656 48.9417C137.534 54.523 143.764 58.415 150.48 59.451C157.199 60.4843 164.31 58.6483 170.182 55.307C171.062 61.1697 174.791 66.787 174.112 74.1884Z" fill="#F9BDA3"/>
<path d="M168.856 96.9952C165.514 93.7058 159.437 93.8912 156.244 97.3272C153.052 100.761 153.27 106.763 156.648 110.017C156.924 110.282 157.24 110.491 157.546 110.714C160.297 108.919 162.782 106.729 164.833 104.103C166.516 101.949 167.88 99.6125 169.001 97.1538L168.856 96.9952Z" fill="#CC7650"/>
<path d="M122.014 97.9861C118.672 94.6981 112.594 94.8821 109.4 98.3181C108.675 99.0995 108.135 100.018 107.758 101.002C111.358 105.649 115.846 109.518 121.022 112.231C121.576 111.917 122.104 111.555 122.579 111.122C125.931 108.057 125.356 101.275 122.014 97.9861Z" fill="#CC7650"/>
<path d="M138.105 74.8203C141.107 77.455 144.659 79.403 148.211 80.979L148.481 80.3697L148.293 79.7297C146.304 80.3137 144.316 80.8977 142.328 81.483C141.975 81.587 141.772 81.9577 141.876 82.311C141.98 82.6644 142.351 82.8657 142.704 82.7617C144.691 82.1763 146.68 81.5937 148.669 81.0097C148.937 80.931 149.128 80.6924 149.147 80.4137C149.165 80.1337 149.007 79.8737 148.752 79.7604C145.269 78.2164 141.837 76.3244 138.985 73.819C138.709 73.575 138.288 73.603 138.045 73.879C137.801 74.1563 137.829 74.5777 138.105 74.8203Z" fill="#262554"/>
<path d="M121.062 76.7142C122.272 76.1262 122.456 74.1702 121.378 73.3635C120.304 72.5582 118.48 73.2902 118.256 74.6168C118.033 75.9422 119.6 77.4248 121.062 76.7142Z" fill="#262554"/>
<path d="M121.061 76.7138L121.352 77.3138C122.309 76.8365 122.752 75.8418 122.753 74.9031C122.754 74.1444 122.46 73.3445 121.777 72.8298C121.338 72.5005 120.82 72.3605 120.321 72.3605C119.701 72.3631 119.098 72.5671 118.602 72.9298C118.109 73.2911 117.71 73.8338 117.596 74.5058C117.576 74.6284 117.566 74.7511 117.566 74.8737C117.569 75.5911 117.892 76.2431 118.37 76.7325C118.852 77.2191 119.52 77.5631 120.274 77.5644C120.63 77.5658 121.001 77.4845 121.352 77.3138L121.061 76.7138L120.769 76.1151C120.596 76.1978 120.434 76.2311 120.274 76.2311C119.942 76.2338 119.589 76.0698 119.32 75.7965C119.05 75.5271 118.896 75.1657 118.9 74.8737L118.912 74.7271C118.957 74.4538 119.125 74.2017 119.392 74.0044C119.654 73.8097 120.006 73.6925 120.321 73.6938C120.577 73.6951 120.798 73.7631 120.978 73.8965C121.254 74.1005 121.42 74.4751 121.42 74.9031C121.421 75.4391 121.153 75.9391 120.769 76.1151L121.061 76.7138Z" fill="#262554"/>
<path d="M112.199 68.4881C112.956 67.4641 113.752 66.4374 114.636 65.6027C115.52 64.7667 116.481 64.1294 117.581 63.8307C118.061 63.7001 118.557 63.6387 119.063 63.6387C120.251 63.6374 121.489 63.9814 122.608 64.5281C124.211 65.3054 125.644 66.4854 127.096 67.6934C127.379 67.9294 127.799 67.8894 128.035 67.6067C128.269 67.324 128.23 66.9028 127.948 66.6681C126.493 65.4614 124.985 64.2041 123.192 63.3294C121.927 62.7134 120.507 62.3067 119.063 62.3054C118.451 62.3054 117.835 62.3787 117.231 62.5441C115.853 62.9187 114.705 63.7027 113.72 64.6334C112.733 65.5667 111.896 66.6561 111.127 67.6961C110.908 67.9934 110.971 68.4094 111.267 68.6294C111.563 68.8481 111.98 68.7854 112.199 68.4881Z" fill="#262554"/>
<path d="M157.945 76.7142C159.153 76.1262 159.34 74.1702 158.262 73.3635C157.186 72.5582 155.361 73.2902 155.138 74.6168C154.917 75.9422 156.482 77.4248 157.945 76.7142Z" fill="#262554"/>
<path d="M157.948 76.7138L158.24 77.3138C159.197 76.8365 159.64 75.8418 159.641 74.9018C159.641 74.1445 159.348 73.3445 158.664 72.8298C158.226 72.5005 157.706 72.3605 157.209 72.3605C156.588 72.3631 155.985 72.5671 155.489 72.9298C154.996 73.2911 154.597 73.8338 154.484 74.5058C154.464 74.6284 154.453 74.7511 154.453 74.8737C154.457 75.5911 154.778 76.2431 155.258 76.7325C155.738 77.2191 156.406 77.5631 157.162 77.5644C157.518 77.5658 157.888 77.4845 158.24 77.3138L157.948 76.7138L157.657 76.1151C157.482 76.1978 157.322 76.2311 157.162 76.2311C156.829 76.2338 156.476 76.0698 156.208 75.7965C155.938 75.5271 155.782 75.1657 155.786 74.8737L155.798 74.7271C155.844 74.4538 156.012 74.2017 156.278 74.0044C156.541 73.8097 156.893 73.6925 157.209 73.6938C157.464 73.6951 157.686 73.7631 157.865 73.8965C158.142 74.1005 158.306 74.4738 158.308 74.9018C158.309 75.4391 158.04 75.9391 157.656 76.1151L157.948 76.7138Z" fill="#262554"/>
<path d="M149.523 68.2874C150.676 68.1287 151.839 68.0501 153.004 68.0501C156.071 68.0501 159.141 68.598 162.013 69.6714C162.357 69.8007 162.741 69.6247 162.871 69.2807C163 68.9354 162.824 68.5514 162.48 68.4221C159.455 67.2927 156.229 66.7167 153.004 66.7167C151.779 66.7167 150.555 66.7994 149.341 66.9674C148.976 67.0167 148.721 67.3527 148.772 67.718C148.821 68.0834 149.159 68.338 149.523 68.2874Z" fill="#262554"/>
<path d="M128.188 90.7176C129.16 90.5816 130.142 90.5149 131.123 90.5149C133.57 90.5149 136.019 90.9336 138.32 91.7549C138.667 91.8789 139.048 91.6976 139.172 91.3509C139.296 91.0043 139.115 90.6229 138.768 90.4989C136.32 89.6256 133.722 89.1816 131.123 89.1816C130.08 89.1816 129.038 89.2523 128.004 89.3976C127.639 89.4483 127.384 89.7856 127.436 90.1496C127.487 90.5149 127.824 90.7696 128.188 90.7176Z" fill="#262554"/>
</svg>
